# xmcd
#
# Track frame offsets:
#	150
#	16080
#	30708
#	43684
#	57872
#	72034
#	88776
#	104913
#	120351
#	136155
#
# Disc length: 2043 seconds
#
# Revision: 0
# Processed by: cddbd v1.5.2PL0 Copyright (c) Steve Scherf et al.
# Submitted via: EasyCDDAExtractor 16.0.1.1
#
DISCID=7f07f90a
DTITLE=Larry Boone - Get In Line
DYEAR=1993
DGENRE=Country
TTITLE0=Daddy's Honky Tonk Heart
TTITLE1=Call Me When The Sun Goes Down
TTITLE2=Bad Intentions
TTITLE3=Her Only Bad Habit Is Me
TTITLE4=I Still Got (What You Got Over)
TTITLE5=Get In Line
TTITLE6=Hotel Coupe Deville
TTITLE7=She's A Yum Yum
TTITLE8=King Of The Mountain
TTITLE9=Watermelon Time In Georgia
EXTD=
EXTT0=
EXTT1=
EXTT2=
EXTT3=
EXTT4=
EXTT5=
EXTT6=
EXTT7=
EXTT8=
EXTT9=
PLAYORDER=
